<svg xmlns="http://www.w3.org/2000/svg" xmlns:xlink="http://www.w3.org/1999/xlink" width="500" zoomAndPan="magnify" viewBox="0 0 375 374.999991" height="500" preserveAspectRatio="xMidYMid meet" version="1.2"><defs><clipPath id="71e7f3a9f0"><path d="M 22 65 L 353 65 L 353 313.222656 L 22 313.222656 Z M 22 65 "/></clipPath></defs><g id="1cf7ad5427"><g clip-rule="nonzero" clip-path="url(#71e7f3a9f0)"><path style=" stroke:none;fill-rule:nonzero;fill:#000000;fill-opacity:1;" d="M 351.914062 235.117188 L 331.152344 130.195312 C 329.597656 122.296875 325.070312 115.496094 318.386719 111.035156 C 311.699219 106.570312 303.707031 104.976562 295.820312 106.535156 L 293.519531 106.996094 L 286.90625 86.484375 C 281.8125 70.6875 264.871094 61.972656 249.097656 67.074219 L 43.105469 133.632812 C 35.46875 136.113281 29.242188 141.390625 25.597656 148.546875 C 21.957031 155.699219 21.285156 163.847656 23.757812 171.5 L 56.546875 273.300781 C 60.332031 285.027344 70.625 292.820312 82.117188 293.988281 C 86.609375 305.679688 97.929688 313.222656 110.167969 313.222656 C 112.078125 313.222656 114.058594 313.046875 116.003906 312.65625 L 328.324219 270.503906 C 336.210938 268.945312 343.003906 264.410156 347.457031 257.71875 C 351.878906 251.023438 353.472656 242.980469 351.914062 235.117188 Z M 296.597656 110.359375 C 303.460938 109.015625 310.425781 110.394531 316.226562 114.292969 C 322.027344 118.1875 325.988281 124.105469 327.332031 130.976562 L 329.597656 142.382812 L 306.429688 147.023438 L 294.757812 110.75 Z M 27.4375 170.292969 C 25.28125 163.636719 25.882812 156.550781 29.066406 150.316406 C 32.25 144.082031 37.660156 139.476562 44.308594 137.316406 L 250.335938 70.792969 C 252.988281 69.945312 255.675781 69.519531 258.328125 69.519531 C 269.363281 69.519531 279.65625 76.601562 283.226562 87.691406 L 286.800781 98.777344 L 31.082031 181.628906 Z M 85.300781 290.234375 C 84.914062 290.234375 84.523438 290.234375 84.136719 290.199219 C 84.101562 290.199219 84.101562 290.199219 84.0625 290.199219 C 73.417969 289.773438 63.65625 282.796875 60.191406 272.0625 L 41.304688 213.402344 L 297.023438 130.550781 L 315.980469 189.457031 C 316.191406 190.097656 316.371094 190.734375 316.511719 191.335938 C 316.582031 191.546875 316.617188 191.796875 316.6875 192.007812 C 316.722656 192.113281 316.722656 192.222656 316.757812 192.328125 C 316.828125 192.683594 316.898438 193 316.933594 193.355469 C 318.808594 205.007812 312.550781 216.628906 301.691406 221.445312 C 301.65625 221.445312 301.65625 221.480469 301.621094 221.480469 C 301.300781 221.621094 300.984375 221.761719 300.664062 221.871094 C 300.558594 221.90625 300.488281 221.941406 300.382812 221.976562 C 300.097656 222.082031 299.851562 222.152344 299.570312 222.257812 C 299.425781 222.292969 299.285156 222.367188 299.109375 222.402344 L 93.082031 288.925781 C 92.660156 289.066406 92.269531 289.171875 91.84375 289.277344 C 91.738281 289.3125 91.632812 289.3125 91.527344 289.347656 C 91.207031 289.417969 90.890625 289.492188 90.609375 289.5625 C 90.5 289.597656 90.359375 289.597656 90.253906 289.632812 C 89.933594 289.703125 89.652344 289.738281 89.335938 289.808594 C 89.226562 289.84375 89.121094 289.84375 89.015625 289.84375 C 88.699219 289.878906 88.378906 289.953125 88.0625 289.988281 C 87.953125 289.988281 87.882812 290.023438 87.777344 290.023438 C 87.425781 290.058594 87.070312 290.09375 86.753906 290.09375 C 86.679688 290.09375 86.609375 290.09375 86.539062 290.09375 C 86.1875 290.128906 85.796875 290.128906 85.445312 290.128906 C 85.410156 290.234375 85.371094 290.234375 85.300781 290.234375 Z M 344.167969 255.519531 C 340.277344 261.328125 334.371094 265.296875 327.511719 266.644531 L 115.1875 308.796875 C 103.269531 311.167969 91.351562 304.933594 86.363281 294.09375 C 87.105469 294.058594 87.847656 293.988281 88.554688 293.917969 C 88.554688 293.917969 88.554688 293.917969 88.589844 293.917969 C 88.945312 293.882812 89.300781 293.8125 89.652344 293.777344 C 89.722656 293.777344 89.792969 293.742188 89.863281 293.742188 C 90.148438 293.707031 90.429688 293.636719 90.714844 293.601562 C 90.820312 293.5625 90.925781 293.5625 91.03125 293.527344 C 91.28125 293.457031 91.5625 293.421875 91.808594 293.351562 C 91.917969 293.316406 92.023438 293.316406 92.128906 293.28125 C 92.410156 293.210938 92.660156 293.140625 92.941406 293.066406 C 93.046875 293.03125 93.117188 293.03125 93.226562 292.996094 C 93.578125 292.890625 93.933594 292.785156 94.320312 292.679688 L 300.347656 226.15625 C 300.808594 226.015625 301.265625 225.835938 301.726562 225.660156 C 301.726562 225.660156 301.761719 225.660156 301.761719 225.625 C 302.1875 225.484375 302.574219 225.304688 303 225.128906 C 303.070312 225.09375 303.140625 225.058594 303.210938 225.058594 C 303.566406 224.914062 303.882812 224.738281 304.238281 224.597656 C 304.414062 224.527344 304.589844 224.421875 304.734375 224.347656 C 304.980469 224.242188 305.191406 224.101562 305.40625 223.996094 C 305.757812 223.816406 306.078125 223.605469 306.429688 223.429688 C 306.464844 223.394531 306.535156 223.355469 306.570312 223.320312 C 311.347656 220.453125 315.238281 216.308594 317.855469 211.242188 C 320.4375 206.175781 321.53125 200.617188 321.074219 195.054688 C 321.074219 194.914062 321.039062 194.773438 321.039062 194.628906 C 321.003906 194.3125 320.96875 194.027344 320.933594 193.707031 C 320.898438 193.390625 320.859375 193.070312 320.789062 192.71875 C 320.753906 192.609375 320.753906 192.46875 320.71875 192.363281 C 320.648438 191.972656 320.578125 191.546875 320.472656 191.160156 C 320.472656 191.125 320.4375 191.085938 320.4375 191.015625 C 320.222656 190.097656 319.976562 189.140625 319.695312 188.21875 L 316.722656 178.972656 L 336.070312 175.113281 L 348.09375 235.824219 C 349.4375 242.734375 348.058594 249.710938 344.167969 255.519531 Z M 344.167969 255.519531 "/></g><path style=" stroke:none;fill-rule:nonzero;fill:#000000;fill-opacity:1;" d="M 55.070312 228 L 187.101562 183.46875 L 188.34375 187.160156 L 56.3125 231.691406 Z M 55.070312 228 "/><path style=" stroke:none;fill-rule:nonzero;fill:#000000;fill-opacity:1;" d="M 61.269531 246.585938 L 243.453125 186.613281 L 244.667969 190.316406 L 62.484375 250.289062 Z M 61.269531 246.585938 "/></g></svg>