<svg xmlns="http://www.w3.org/2000/svg" xmlns:xlink="http://www.w3.org/1999/xlink" width="500" zoomAndPan="magnify" viewBox="0 0 375 374.999991" height="500" preserveAspectRatio="xMidYMid meet" version="1.2"><defs><clipPath id="7950fbd70a"><path d="M 21.253906 81 L 77 81 L 77 174 L 21.253906 174 Z M 21.253906 81 "/></clipPath><clipPath id="e82616200f"><path d="M 254 305 L 353 305 L 353 353.503906 L 254 353.503906 Z M 254 305 "/></clipPath></defs><g id="808829b873"><path style=" stroke:none;fill-rule:nonzero;fill:#000000;fill-opacity:1;" d="M 211.703125 120.875 C 210.972656 120.046875 210.308594 119.152344 209.707031 118.238281 C 214.148438 120.089844 217.863281 123.351562 220.328125 127.496094 C 217.25 126.125 214.304688 123.933594 211.703125 120.875 Z M 211.703125 120.875 "/><path style=" stroke:none;fill-rule:nonzero;fill:#000000;fill-opacity:1;" d="M 213.792969 145.242188 C 211.421875 150.363281 206.304688 153.550781 200.78125 153.550781 C 200.035156 153.550781 199.253906 153.515625 198.507812 153.382812 L 173.507812 149.304688 C 166.449219 148.148438 159.308594 150.832031 154.738281 156.347656 L 151.046875 160.804688 C 144.8125 168.367188 134.617188 171.421875 125.265625 168.429688 L 94.234375 158.613281 C 90.8125 157.5625 87.222656 157.222656 83.667969 157.691406 L 83.324219 157.730469 L 83.339844 97.019531 L 84.761719 96.980469 C 92.929688 96.78125 100.957031 95.050781 108.445312 91.832031 L 181.695312 60.363281 C 188.980469 57.242188 197.246094 57.34375 204.460938 60.671875 L 212.773438 64.523438 C 214.101562 65.140625 214.355469 66.925781 213.253906 67.890625 L 164.855469 110.242188 C 163.65625 111.292969 164.078125 113.246094 165.605469 113.707031 L 204.953125 125.558594 C 213.253906 128.070312 217.421875 137.371094 213.792969 145.242188 Z M 213.792969 145.242188 "/><g clip-rule="nonzero" clip-path="url(#7950fbd70a)"><path style=" stroke:none;fill-rule:nonzero;fill:#000000;fill-opacity:1;" d="M 66.949219 81.332031 L 31.449219 81.320312 C 26.128906 81.320312 21.789062 85.628906 21.789062 90.957031 L 21.769531 163.917969 C 21.769531 169.25 26.101562 173.554688 31.421875 173.558594 L 66.925781 173.570312 C 72.246094 173.570312 76.546875 169.265625 76.550781 163.933594 L 76.570312 90.972656 C 76.570312 85.644531 72.269531 81.332031 66.949219 81.332031 Z M 49.179688 163.140625 C 45.652344 163.140625 42.808594 160.289062 42.8125 156.796875 C 42.8125 153.269531 45.660156 150.417969 49.183594 150.421875 C 52.671875 150.421875 55.519531 153.273438 55.519531 156.800781 C 55.511719 160.296875 52.667969 163.148438 49.179688 163.140625 Z M 49.179688 163.140625 "/></g><path style=" stroke:none;fill-rule:nonzero;fill:#000000;fill-opacity:1;" d="M 307.832031 77.664062 C 293 60.386719 278.203125 43.125 263.386719 25.808594 C 260.828125 22.855469 255.425781 21.367188 251.597656 22.902344 C 234.9375 29.585938 222.605469 41.269531 211.613281 54.570312 L 221.175781 58.992188 C 229.039062 49.917969 237.644531 41.773438 248.089844 35.710938 C 250.902344 38.945312 256.144531 39.78125 260.191406 37.910156 C 270.269531 49.65625 280.328125 61.4375 290.363281 73.164062 C 286.332031 74.992188 285.578125 79.449219 288.351562 82.667969 C 251.214844 104.195312 236.847656 152.367188 199.710938 173.894531 C 196.910156 170.625 191.652344 169.828125 187.625 171.65625 C 183.851562 167.230469 180.027344 162.832031 176.257812 158.410156 L 172.136719 157.738281 C 169.167969 157.277344 166.175781 157.953125 163.753906 159.621094 C 170.628906 167.710938 177.535156 175.71875 184.429688 183.765625 C 186.96875 186.757812 192.386719 188.207031 196.21875 186.667969 C 244.800781 167.273438 256.664062 104.976562 305.222656 85.527344 C 309.046875 83.976562 310.371094 80.652344 307.832031 77.664062 Z M 307.832031 77.664062 "/><path style=" stroke:none;fill-rule:nonzero;fill:#000000;fill-opacity:1;" d="M 217.175781 103.492188 C 217.695312 104.097656 218.257812 104.398438 218.859375 104.347656 C 219.460938 104.335938 220.3125 103.902344 221.429688 103.109375 C 220.074219 101.527344 218.714844 99.9375 217.359375 98.351562 C 216.746094 99.347656 216.429688 100.285156 216.40625 101.199219 C 216.378906 102.121094 216.636719 102.867188 217.175781 103.492188 Z M 217.175781 103.492188 "/><path style=" stroke:none;fill-rule:nonzero;fill:#000000;fill-opacity:1;" d="M 226.144531 105.050781 C 227.558594 106.699219 228.972656 108.351562 230.390625 110.003906 C 231.03125 108.96875 231.339844 107.953125 231.402344 106.992188 C 231.460938 105.988281 231.210938 105.183594 230.65625 104.539062 C 230.121094 103.910156 229.507812 103.597656 228.863281 103.667969 C 228.210938 103.742188 227.308594 104.195312 226.144531 105.050781 Z M 226.144531 105.050781 "/><path style=" stroke:none;fill-rule:nonzero;fill:#000000;fill-opacity:1;" d="M 236.113281 88.679688 C 227.558594 78.667969 215.011719 77.621094 208.375 86.703125 C 202.363281 94.984375 202.964844 108.367188 209.703125 118.230469 C 210.308594 119.148438 210.964844 120.042969 211.695312 120.871094 C 214.304688 123.929688 217.25 126.117188 220.324219 127.484375 C 227.332031 130.601562 234.804688 129.1875 239.417969 122.882812 C 246.042969 113.84375 244.664062 98.695312 236.113281 88.679688 Z M 233.21875 116.84375 C 232.621094 116.15625 232.039062 115.523438 231.480469 114.847656 C 229.214844 117.304688 226.558594 118.75 223.445312 119.148438 C 223.300781 117.632812 223.175781 116.167969 223.03125 114.648438 C 225.40625 114.289062 227.363281 113.351562 228.898438 111.84375 C 227.394531 110.074219 225.839844 108.289062 224.347656 106.484375 C 222.25 108.273438 220.453125 109.273438 219 109.492188 C 217.550781 109.707031 216.109375 109.0625 214.753906 107.488281 C 213.414062 105.871094 212.722656 104.011719 212.75 101.785156 C 212.789062 99.558594 213.460938 97.449219 214.835938 95.417969 C 214.429688 94.941406 214.0625 94.476562 213.636719 94.042969 C 214.109375 93.402344 214.582031 92.765625 215.058594 92.121094 C 215.46875 92.597656 215.878906 93.078125 216.285156 93.554688 C 218 91.476562 220.121094 90.105469 222.632812 89.378906 C 222.875 90.890625 223.128906 92.355469 223.371094 93.867188 C 221.652344 94.300781 220.132812 95.175781 218.84375 96.503906 C 220.3125 98.261719 221.796875 99.972656 223.277344 101.6875 C 223.292969 101.644531 223.292969 101.644531 223.308594 101.609375 C 225.453125 99.832031 227.304688 98.808594 228.796875 98.605469 C 230.300781 98.363281 231.765625 99.066406 233.15625 100.65625 C 234.539062 102.285156 235.179688 104.175781 235.128906 106.441406 C 235.09375 108.667969 234.347656 110.847656 232.945312 112.953125 C 233.503906 113.625 234.070312 114.296875 234.605469 114.917969 C 234.125 115.550781 233.691406 116.207031 233.21875 116.84375 Z M 233.21875 116.84375 "/><path style=" stroke:none;fill-rule:nonzero;fill:#000000;fill-opacity:1;" d="M 242.296875 72.472656 C 240 74.890625 239.96875 78.992188 242.125 81.511719 C 244.289062 84.039062 247.820312 84.023438 250.117188 81.601562 C 252.414062 79.179688 252.617188 75.28125 250.457031 72.757812 C 248.300781 70.242188 244.589844 70.050781 242.296875 72.472656 Z M 242.296875 72.472656 "/><path style=" stroke:none;fill-rule:nonzero;fill:#000000;fill-opacity:1;" d="M 328.738281 289.71875 L 260.660156 291.519531 L 260.25 291.519531 L 249.148438 277.371094 C 243.761719 270.503906 235.601562 266.496094 226.863281 266.496094 L 180.742188 266.496094 C 169.886719 266.496094 159.355469 262.324219 151.519531 254.722656 L 114.292969 218.746094 C 111.761719 216.375 110.535156 213.105469 110.535156 209.832031 C 110.535156 207.296875 111.269531 204.761719 112.824219 202.640625 C 116.90625 196.914062 124.824219 195.773438 130.371094 199.941406 L 166.453125 227.5 C 169.554688 229.789062 173.3125 231.097656 177.230469 231.097656 L 228.414062 231.097656 C 231.761719 231.097656 234.535156 228.320312 234.535156 224.964844 C 234.535156 221.613281 231.761719 218.832031 228.414062 218.832031 L 198.453125 218.832031 C 192.085938 218.832031 186.859375 213.683594 186.859375 207.21875 C 186.859375 200.84375 192.082031 195.6875 198.453125 195.6875 L 260.085938 195.6875 C 280.65625 195.6875 299.105469 208.527344 306.289062 227.90625 Z M 328.738281 289.71875 "/><g clip-rule="nonzero" clip-path="url(#e82616200f)"><path style=" stroke:none;fill-rule:nonzero;fill:#000000;fill-opacity:1;" d="M 352.085938 311.878906 C 352 308.28125 348.984375 305.503906 345.394531 305.664062 L 261.152344 307.871094 C 257.558594 307.957031 254.785156 310.898438 254.863281 314.496094 L 255.679688 347.203125 C 255.761719 350.800781 258.703125 353.582031 262.292969 353.496094 L 346.621094 351.210938 C 350.210938 351.128906 353.066406 348.183594 352.984375 344.585938 Z M 339.921875 335.347656 C 336.738281 335.347656 334.125 332.730469 334.125 329.542969 C 334.125 326.351562 336.738281 323.734375 339.921875 323.734375 C 343.105469 323.734375 345.71875 326.351562 345.71875 329.542969 C 345.71875 332.730469 343.105469 335.347656 339.921875 335.347656 Z M 339.921875 335.347656 "/></g></g></svg>