<svg xmlns="http://www.w3.org/2000/svg" xmlns:xlink="http://www.w3.org/1999/xlink" width="500" zoomAndPan="magnify" viewBox="0 0 375 374.999991" height="500" preserveAspectRatio="xMidYMid meet" version="1.2"><defs><clipPath id="ae3ded8c26"><path d="M 32 102.515625 L 337 102.515625 L 337 272.765625 L 32 272.765625 Z M 32 102.515625 "/></clipPath></defs><g id="9c04f4dc39"><path style=" stroke:none;fill-rule:nonzero;fill:#100f0d;fill-opacity:1;" d="M 184.554688 159.59375 C 169.136719 159.59375 156.59375 172.171875 156.59375 187.632812 C 156.59375 203.109375 169.136719 215.699219 184.554688 215.699219 C 199.988281 215.699219 212.542969 203.109375 212.542969 187.632812 C 212.542969 172.171875 199.988281 159.59375 184.554688 159.59375 "/><g clip-rule="nonzero" clip-path="url(#ae3ded8c26)"><path style=" stroke:none;fill-rule:nonzero;fill:#100f0d;fill-opacity:1;" d="M 318.019531 189.414062 C 316.050781 191.640625 278.480469 233.535156 227.273438 250.851562 C 247.042969 237.164062 260.027344 214.292969 260.027344 188.433594 C 260.027344 160.457031 244.835938 135.972656 222.289062 122.835938 C 276.027344 139.011719 315.988281 183.570312 318.023438 185.875 L 319.585938 187.640625 Z M 51.101562 189.414062 L 49.535156 187.640625 L 51.078125 185.894531 C 53.117188 183.605469 92.96875 139.535156 146.082031 123.121094 C 123.800781 136.324219 108.824219 160.65625 108.824219 188.433594 C 108.824219 214.144531 121.652344 236.898438 141.230469 250.613281 C 90.417969 233.152344 53.058594 191.621094 51.101562 189.414062 Z M 184.421875 249.730469 C 150.714844 249.730469 123.292969 222.234375 123.292969 188.433594 C 123.292969 154.632812 150.714844 127.132812 184.421875 127.132812 C 218.132812 127.132812 245.554688 154.632812 245.554688 188.433594 C 245.554688 222.234375 218.132812 249.730469 184.421875 249.730469 Z M 334.675781 182.824219 L 328.847656 176.242188 C 326.1875 173.234375 262.765625 102.519531 184.566406 102.519531 C 151.847656 102.519531 117.96875 114.582031 83.863281 138.371094 C 58.628906 155.972656 42.09375 174.199219 40.273438 176.242188 L 34.449219 182.828125 C 32.019531 185.574219 32.019531 189.707031 34.449219 192.453125 L 40.28125 199.046875 C 42.0625 201.054688 58.414062 219.175781 83.839844 236.910156 C 117.9375 260.699219 151.824219 272.761719 184.566406 272.761719 C 262.765625 272.761719 326.1875 202.046875 328.84375 199.042969 L 334.675781 192.457031 C 337.109375 189.710938 337.109375 185.570312 334.675781 182.824219 "/></g><path style="fill:none;stroke-width:23;stroke-linecap:butt;stroke-linejoin:miter;stroke:#000000;stroke-opacity:1;stroke-miterlimit:4;" d="M 0.00124925 11.498073 L 466.202689 11.499435 " transform="matrix(0.655161,-0.364433,0.364433,0.655161,27.746401,264.943929)"/></g></svg>