<svg xmlns="http://www.w3.org/2000/svg" xmlns:xlink="http://www.w3.org/1999/xlink" width="40" zoomAndPan="magnify" viewBox="0 0 30 30.000001" height="40" preserveAspectRatio="xMidYMid meet" version="1.2"><defs><clipPath id="cedf72af55"><path d="M 6.207031 6.527344 L 23.625 6.527344 L 23.625 22.492188 L 6.207031 22.492188 Z M 6.207031 6.527344 "/></clipPath></defs><g id="d5320f6f0b"><g style="fill:#000000;fill-opacity:1;"><g transform="translate(19.375503, 14.491942)"><path style="stroke:none" d="M 0.21875 0.015625 C 0.164062 0.015625 0.125 0 0.09375 -0.03125 C 0.0625 -0.0625 0.046875 -0.101562 0.046875 -0.15625 C 0.046875 -0.1875 0.0507812 -0.207031 0.0625 -0.21875 C 0.0820312 -0.238281 0.101562 -0.253906 0.125 -0.265625 C 0.15625 -0.285156 0.191406 -0.296875 0.234375 -0.296875 C 0.265625 -0.304688 0.289062 -0.3125 0.3125 -0.3125 C 0.332031 -0.320312 0.347656 -0.332031 0.359375 -0.34375 C 0.367188 -0.351562 0.375 -0.367188 0.375 -0.390625 C 0.375 -0.410156 0.363281 -0.425781 0.34375 -0.4375 C 0.320312 -0.457031 0.296875 -0.46875 0.265625 -0.46875 C 0.234375 -0.46875 0.207031 -0.457031 0.1875 -0.4375 C 0.164062 -0.425781 0.144531 -0.410156 0.125 -0.390625 L 0.109375 -0.390625 L 0.078125 -0.4375 C 0.0976562 -0.46875 0.125 -0.488281 0.15625 -0.5 C 0.1875 -0.519531 0.222656 -0.53125 0.265625 -0.53125 C 0.328125 -0.53125 0.375 -0.515625 0.40625 -0.484375 C 0.4375 -0.460938 0.453125 -0.425781 0.453125 -0.375 L 0.453125 -0.109375 C 0.453125 -0.078125 0.460938 -0.0625 0.484375 -0.0625 C 0.492188 -0.0625 0.503906 -0.0625 0.515625 -0.0625 L 0.53125 -0.015625 C 0.519531 -0.00390625 0.507812 0 0.5 0 C 0.488281 0 0.476562 0 0.46875 0 C 0.4375 0 0.414062 -0.00390625 0.40625 -0.015625 C 0.394531 -0.0234375 0.382812 -0.046875 0.375 -0.078125 L 0.359375 -0.078125 C 0.347656 -0.046875 0.328125 -0.0195312 0.296875 0 C 0.273438 0.0078125 0.25 0.015625 0.21875 0.015625 Z M 0.234375 -0.046875 C 0.253906 -0.046875 0.273438 -0.0507812 0.296875 -0.0625 C 0.316406 -0.0820312 0.332031 -0.101562 0.34375 -0.125 C 0.363281 -0.15625 0.375 -0.1875 0.375 -0.21875 L 0.375 -0.265625 L 0.359375 -0.28125 C 0.347656 -0.269531 0.332031 -0.257812 0.3125 -0.25 C 0.300781 -0.25 0.28125 -0.242188 0.25 -0.234375 C 0.226562 -0.234375 0.207031 -0.226562 0.1875 -0.21875 C 0.164062 -0.21875 0.148438 -0.210938 0.140625 -0.203125 C 0.140625 -0.191406 0.140625 -0.175781 0.140625 -0.15625 C 0.140625 -0.125 0.144531 -0.0976562 0.15625 -0.078125 C 0.175781 -0.0546875 0.203125 -0.046875 0.234375 -0.046875 Z M 0.234375 -0.046875 "/></g></g><g clip-rule="nonzero" clip-path="url(#cedf72af55)"><path style=" stroke:none;fill-rule:nonzero;fill:#ffffff;fill-opacity:1;" d="M 10.492188 6.523438 L 7.792969 6.535156 L 7.800781 8.121094 L 9.441406 8.113281 L 10.097656 9.691406 L 11.144531 9.691406 L 11.144531 9.695312 L 21.484375 9.695312 L 19.285156 13.652344 L 12.613281 13.652344 L 11.210938 15.890625 C 10.894531 16.394531 10.878906 17.035156 11.167969 17.558594 C 11.457031 18.078125 12.007812 18.402344 12.605469 18.402344 L 22.042969 18.402344 L 22.042969 16.820312 L 12.605469 16.820312 L 12.554688 16.726562 L 13.488281 15.238281 L 19.285156 15.238281 C 19.863281 15.238281 20.390625 14.921875 20.671875 14.421875 L 23.523438 9.285156 C 23.660156 9.039062 23.65625 8.742188 23.515625 8.5 C 23.371094 8.257812 23.113281 8.109375 22.832031 8.109375 L 11.15625 8.109375 Z M 6.207031 11.277344 L 6.207031 12.859375 L 11.242188 12.859375 L 11.277344 12.8125 L 12.242188 11.277344 Z M 6.207031 14.441406 L 6.207031 16.027344 L 9.25 16.027344 L 10.253906 14.441406 Z M 12.539062 19.195312 C 12.332031 19.195312 12.128906 19.234375 11.933594 19.316406 C 11.742188 19.394531 11.570312 19.511719 11.421875 19.660156 C 11.273438 19.808594 11.15625 19.980469 11.078125 20.171875 C 10.996094 20.367188 10.957031 20.570312 10.957031 20.777344 C 10.957031 20.988281 10.996094 21.191406 11.078125 21.382812 C 11.15625 21.578125 11.273438 21.75 11.421875 21.898438 C 11.570312 22.046875 11.742188 22.160156 11.933594 22.242188 C 12.128906 22.320312 12.332031 22.363281 12.539062 22.363281 C 12.75 22.363281 12.953125 22.320312 13.144531 22.242188 C 13.339844 22.160156 13.511719 22.046875 13.660156 21.898438 C 13.808594 21.75 13.921875 21.578125 14.003906 21.382812 C 14.082031 21.191406 14.125 20.988281 14.125 20.777344 C 14.125 20.570312 14.082031 20.367188 14.003906 20.171875 C 13.921875 19.980469 13.808594 19.808594 13.660156 19.660156 C 13.511719 19.511719 13.339844 19.394531 13.144531 19.316406 C 12.953125 19.234375 12.75 19.195312 12.539062 19.195312 Z M 20.457031 19.195312 C 20.246094 19.195312 20.046875 19.234375 19.851562 19.316406 C 19.65625 19.394531 19.488281 19.511719 19.339844 19.660156 C 19.191406 19.808594 19.074219 19.980469 18.996094 20.171875 C 18.914062 20.367188 18.875 20.570312 18.875 20.777344 C 18.875 20.988281 18.914062 21.191406 18.996094 21.382812 C 19.074219 21.578125 19.191406 21.75 19.339844 21.898438 C 19.488281 22.046875 19.65625 22.160156 19.851562 22.242188 C 20.046875 22.320312 20.246094 22.363281 20.457031 22.363281 C 20.667969 22.363281 20.871094 22.320312 21.0625 22.242188 C 21.257812 22.160156 21.429688 22.046875 21.578125 21.898438 C 21.726562 21.75 21.839844 21.578125 21.921875 21.382812 C 22 21.191406 22.042969 20.988281 22.042969 20.777344 C 22.042969 20.570312 22 20.367188 21.921875 20.171875 C 21.839844 19.980469 21.726562 19.808594 21.578125 19.660156 C 21.429688 19.511719 21.257812 19.394531 21.0625 19.316406 C 20.871094 19.234375 20.667969 19.195312 20.457031 19.195312 Z M 20.457031 19.195312 "/></g></g></svg>